<svg width="150" height="150" viewBox="0 0 150 150" fill="none" xmlns="http://www.w3.org/2000/svg">
<path d="M75 150C116.421 150 150 116.421 150 75C150 33.5786 116.421 0 75 0C33.5786 0 0 33.5786 0 75C0.0454672 116.403 33.5975 149.955 75 150ZM75 15C107.959 15.0083 134.742 41.6015 134.983 74.5601C135.225 107.519 108.836 134.502 75.8798 134.993C42.924 135.485 15.7416 109.301 15 76.35V89.7225V75C15.0372 41.8783 41.8783 15.0372 75 15ZM64.125 111.75L101.25 74.625L64.125 37.5L53.52 48.105L80.04 74.625L53.5275 101.145L64.1175 111.75H64.125Z" fill="white"/>
</svg>
