<svg width="150" height="150" viewBox="0 0 150 150" fill="none" xmlns="http://www.w3.org/2000/svg">
<path d="M75 150C33.5786 150 0 116.421 0 75C0 33.5786 33.5786 0 75 0C116.421 0 150 33.5786 150 75C149.955 116.403 116.403 149.955 75 150ZM75 15C42.0405 15.0083 15.2585 41.6015 15.0168 74.5601C14.7751 107.519 41.1644 134.502 74.1202 134.993C107.076 135.485 134.258 109.301 135 76.35V89.7225V75C134.963 41.8783 108.122 15.0372 75 15ZM85.875 111.75L48.75 74.625L85.875 37.5L96.48 48.105L69.96 74.625L96.4725 101.145L85.8825 111.75H85.875Z" fill="white"/>
</svg>
