<svg width="44" height="44" viewBox="0 0 44 44" fill="none" xmlns="http://www.w3.org/2000/svg">
<g clip-path="url(#clip0)">
<path d="M43.7513 14.3828L39.0107 9.43718L41.074 8.12124L41.1944 7.09564L40.2373 7.03857L37.7553 8.82384L34.6581 8.82652L32.7621 7.66884L32.083 7.80749L32.093 8.56013L33.3151 9.91372L33.154 10.6247L18.771 12.1715L3.87273 11.7555L2.26727 12.4285L1.0847 13.9312L0.476263 17.446L0.368783 19.9727L0 22.332L0.101376 24.6818L0.516129 24.7666L1.11902 24.1029L1.60916 21.8981L1.21189 18.8394L1.35008 18.8186L2.28392 23.475L1.64782 27.5162L2.2286 35.5815L2.28392 36.4746L2.8499 36.9574L5.35239 36.9613L6.15877 36.7174L3.9199 33.0715L5.03059 28.4415L5.6123 28.4425L7.64195 34.5984L8.68817 36.1788L9.2043 36.4965L11.9667 36.4986L12.3211 36.055L9.92984 34.5861L8.30847 29.5928L8.7149 28.7822L9.66734 28.8706L10.2653 30.3348L11.1316 28.9076L11.9709 30.3409L12.6818 28.7846L14.7743 27.1761L22.1998 26.465L23.4461 27.9886L24.4965 35.4374L25.0491 36.5076L27.5792 36.5066L27.852 36.1055L26.3142 33.9651L26.1294 29.8893L26.9598 30.3502L27.8345 33.0576L28.947 36.5732L29.4458 36.9599L31.7096 36.9613L31.8975 36.4501L31.2357 35.8376L29.1011 31.6659L29.5932 27.294L31.9851 25.5246L35.4694 19.0528L39.4798 17.2014L43.1677 16.7816L43.4839 16.4388L44 14.9842L43.7513 14.3828Z" fill="white"/>
</g>
<defs>
<clipPath id="clip0">
<rect width="44" height="44" fill="white"/>
</clipPath>
</defs>
</svg>
