<svg width="60" height="60" viewBox="0 0 60 60" fill="none" xmlns="http://www.w3.org/2000/svg">
<path d="M47.675 12.325L44.15 15.85C47.75 19.475 50 24.475 50 30C50 41.05 41.05 50 30 50C18.95 50 10 41.05 10 30C10 19.8 17.625 11.4 27.5 10.175V15.225C20.4 16.425 15 22.575 15 30C15 38.275 21.725 45 30 45C38.275 45 45 38.275 45 30C45 25.85 43.325 22.1 40.6 19.4L37.075 22.925C38.875 24.75 40 27.25 40 30C40 35.525 35.525 40 30 40C24.475 40 20 35.525 20 30C20 25.35 23.2 21.475 27.5 20.35V25.7C26 26.575 25 28.15 25 30C25 32.75 27.25 35 30 35C32.75 35 35 32.75 35 30C35 28.15 34 26.55 32.5 25.7V5H30C16.2 5 5 16.2 5 30C5 43.8 16.2 55 30 55C43.8 55 55 43.8 55 30C55 23.1 52.2 16.85 47.675 12.325Z" fill="white"/>
</svg>
