<svg width="389" height="367" viewBox="0 0 389 367" fill="none" xmlns="http://www.w3.org/2000/svg">
<g filter="url(#filter0_f)">
<path d="M205.242 27.2215L222.16 12.745L245.301 36.1609L245.177 43.1393L273.978 64.6235L295.304 67.9187L317.468 59.3151L356.049 18.7852L386.413 1.69873L387 1.76761L333.572 108.083L325.364 114.735L323.375 104.406L316.378 132.201L304.092 140.946L314.051 109.734L311.145 95.0537L302.699 92.2987L304.041 80.8646L280.683 73.8692L274.059 71.8051L243.701 48.3925L237.849 36.5678L221.395 21.5882L213.236 47.9204L203.381 49.9399L197.275 57.0649L181.744 64.5804L173.062 80.8074L151.259 83.9205L133.408 91.5903L97.6348 92.7286L72.7323 100.02L72.083 94.368L100.367 84.342L128.783 82.4343L140.083 76.3101L158.236 73.0192L205.242 27.2215Z" fill="#474747"/>
<path d="M186.703 67.0599L198.317 61.2552L200.21 58.4734L204.584 58.9146L203.996 65.9068L200.465 66.1631L191.489 76.0504L183.768 81.2901L179.088 82.3083L186.703 67.0599Z" fill="#474747"/>
<path d="M195.16 78.9981L199.919 71.6663L201.686 71.8117L202.124 73.2711L201.157 77.8452L199.149 83.065L195.123 90.2796L191.209 88.1377L189.448 82.6652L195.16 78.9981Z" fill="#474747"/>
<path d="M234.505 72.5273L233.252 67.3422L226.403 60.9136L224.962 57.5513L222.32 48.2686L225.825 51.6169L229.489 59.239L235.968 66.1379L244.077 66.2953L245.468 70.6819L245.896 74.6833L246.427 88.0483L249.128 95.7721L242.682 91.2401L240.328 86.3758L237.932 80.9032L234.505 72.5273Z" fill="#474747"/>
<path d="M228.734 42.1738L232.858 45.7235L235.513 51.0233L236.904 53.1827L240.696 54.2569L242.342 59.3927L239.069 61.7675L234.662 60.5824L234.81 54.6861L231.005 50.8556L228.733 46.4772L228.734 42.1738Z" fill="#474747"/>
<path d="M223.19 77.4772L222.295 65.3757L225.587 67.681L226.654 71.4802L226.443 77.3958L229.904 77.6743L230.409 83.1641L233.563 88.5789L227.316 89.8567L223.94 81.6844L223.19 77.4772Z" fill="#474747"/>
<path d="M143.194 96.9895L151.09 89.9596L152.98 91.0975L155.374 91.333L158.147 91.1726L173.693 88.0073L164.168 94.9578L162.709 98.952L159.891 101.299L155.64 102.785L151.491 105.916L139.298 121.86L146.423 106.219L145.022 100.927L117.537 101.052L117.807 99.0199L137.289 98.3403L143.194 96.9895Z" fill="#474747"/>
</g>
<path d="M205.242 27.2215L222.16 12.745L245.301 36.1609L245.177 43.1393L273.978 64.6235L295.304 67.9187L317.468 59.3151L356.049 18.7852L386.413 1.69873L387 1.76761L333.572 108.083L325.364 114.735L323.375 104.406L316.378 132.201L304.092 140.946L314.051 109.734L311.145 95.0537L302.699 92.2987L304.041 80.8646L280.683 73.8692L274.059 71.8051L243.701 48.3925L237.849 36.5678L221.395 21.5882L213.236 47.9204L203.381 49.9399L197.275 57.0649L181.744 64.5804L173.062 80.8074L151.259 83.9205L133.408 91.5903L97.6348 92.7286L72.7323 100.02L72.083 94.368L100.367 84.342L128.783 82.4343L140.083 76.3101L158.236 73.0192L205.242 27.2215Z" fill="#800000"/>
<path d="M186.703 67.0599L198.317 61.2552L200.21 58.4734L204.584 58.9146L203.996 65.9068L200.465 66.1631L191.489 76.0504L183.768 81.2901L179.088 82.3083L186.703 67.0599Z" fill="#800000"/>
<path d="M195.16 78.9981L199.919 71.6663L201.686 71.8117L202.124 73.2711L201.157 77.8452L199.149 83.065L195.123 90.2796L191.209 88.1377L189.448 82.6652L195.16 78.9981Z" fill="#800000"/>
<path d="M234.505 72.5273L233.252 67.3422L226.403 60.9136L224.962 57.5513L222.32 48.2686L225.825 51.6169L229.489 59.239L235.968 66.1379L244.077 66.2953L245.468 70.6819L245.896 74.6833L246.427 88.0483L249.128 95.7721L242.682 91.2401L240.328 86.3758L237.932 80.9032L234.505 72.5273Z" fill="#800000"/>
<path d="M228.734 42.1738L232.858 45.7235L235.513 51.0233L236.904 53.1827L240.696 54.2569L242.342 59.3927L239.069 61.7675L234.662 60.5824L234.81 54.6861L231.005 50.8556L228.733 46.4772L228.734 42.1738Z" fill="#800000"/>
<path d="M223.19 77.4772L222.295 65.3757L225.587 67.681L226.654 71.4802L226.443 77.3958L229.904 77.6743L230.409 83.1641L233.563 88.5789L227.316 89.8567L223.94 81.6844L223.19 77.4772Z" fill="#800000"/>
<path d="M143.194 96.9895L151.09 89.9596L152.98 91.0975L155.374 91.333L158.147 91.1726L173.693 88.0073L164.168 94.9578L162.709 98.952L159.891 101.299L155.64 102.785L151.491 105.916L139.298 121.86L146.423 106.219L145.022 100.927L117.537 101.052L117.807 99.0199L137.289 98.3403L143.194 96.9895Z" fill="#800000"/>
<path d="M261.109 93.1614L259.131 100.954L254.653 111.298L242.592 121.232L233.26 127.165L225.746 132.919L222.633 137.582L221.545 142.902L221.93 142.942L222.152 151.6L221.124 155.977L216.339 152.57C214.976 147.148 200.728 138.477 189.83 138.527C178.931 138.577 172.991 143.236 171.82 148.669C170.649 154.103 183.833 169.41 194.459 170.625L196.075 170.698L194.552 171.549L160.481 180.924L137.92 181.536C136.022 180.712 134.75 180.545 134.136 181.639L132.933 181.673L133.791 188.986L137.309 322.004C137.631 334.161 190.415 375.715 204.626 350.401L213.111 335.284L237.936 308.204L250.136 303.821L282.913 304.33L310.315 299.364C324.055 294.825 351.136 315.068 358.226 299.993C359.184 297.955 361.592 294.463 362.801 291.488C363.702 289.269 362.945 287.339 365.752 286.508C379.103 282.557 379.842 271.821 380.105 267.13L380.848 253.864C381.165 248.214 354.778 238.347 347.086 227.52C341.739 219.994 334.202 214.335 329.73 208.376C327.131 204.912 325.543 197.631 323.234 194.988L317.588 176.445L290.411 148.449L289.449 148.36L298.599 139.863L304.346 129.574L306.241 121.533L306.874 113.002L305.247 104.205C305.247 104.205 303.72 103.204 302.895 103.339C301.954 103.493 300.664 105.135 300.664 105.135L292.285 126.386L279.803 135.864L270.909 132.068L265.321 131.473L260.783 131.926L257.095 134.409L252.819 134.808L261.396 126.802L265.802 120.67L267.184 113.074L267.206 102.553L264.661 98.0987L261.109 93.1614Z" fill="black"/>
<g opacity="0.512903" filter="url(#filter1_f)">
<path d="M267.176 90L265.198 97.7921L260.721 108.137L248.659 118.071L239.328 124.004L231.813 129.758L228.701 134.42L227.612 139.741L227.998 139.78L228.219 148.438L227.192 152.815L222.406 149.408C221.043 143.986 206.795 135.316 195.897 135.366C184.999 135.416 179.058 140.075 177.887 145.508C176.716 150.941 187.799 167.957 198.425 169.173L195.089 168.57L166.549 177.762L143.987 178.374C142.089 177.551 140.818 177.383 140.204 178.478L139 178.512L139.858 185.824L143.376 318.843C143.698 331 196.482 372.553 210.693 347.24L219.179 332.123L244.004 305.042L256.203 300.66L288.98 301.168L316.382 296.203C330.122 291.664 357.203 311.906 364.293 296.832C365.252 294.793 367.66 291.302 368.868 288.327C369.77 286.108 369.012 284.177 371.819 283.347C385.17 279.396 385.909 268.659 386.172 263.969L386.915 250.703C387.232 245.052 360.846 235.186 353.153 224.358C347.806 216.832 340.269 211.174 335.797 205.214C333.198 201.751 331.61 194.469 329.301 191.827L323.655 173.283L296.478 145.288L295.516 145.198L304.667 136.702L310.414 126.412L312.308 118.372L312.942 109.841L311.315 101.044C311.315 101.044 309.787 100.042 308.962 100.178C308.021 100.332 306.731 101.973 306.731 101.973L298.352 123.225L285.871 132.703L276.977 128.907L271.388 128.312L266.85 128.765L263.162 131.248L258.886 131.646L267.464 123.64L271.869 117.508L273.251 109.912L273.273 99.3921L270.728 94.9374L267.176 90Z" fill="#3BA04C"/>
</g>
<path d="M197.03 260.545C197.03 307.427 163.448 343.799 121.83 360.647C108.355 366.102 106.802 366 91.3176 366C79.0504 366 66.6451 365.305 54.2861 361.983C47.5024 360.16 60.0916 352.195 52.8928 349.404C47.4739 347.302 33.4314 350.543 27.7824 347.739C13.9134 340.856 20.044 343.65 12.0607 333.945C11.5167 333.284 10.3011 331.156 10.0857 330.108C9.77871 328.613 8.78332 325.8 8.8531 323.43C8.92859 320.873 10.082 318.763 10.0812 317.403C10.0812 317.337 10.0674 317.282 10.0674 317.222C10.0617 317.101 10.0609 316.98 10.0463 316.85C10.0045 316.485 9.95195 316.092 9.92816 315.744C9.86526 314.83 10.0491 314.033 10.2016 313.275C10.5757 311.414 11.332 309.611 13.7154 308.381C15.1448 307.644 23.2582 310.797 24.3172 310.402C34.1386 306.738 43.125 299.624 56.4333 284.965C59.8214 281.233 62.1683 272.742 66.6129 267.649C72.8516 260.499 80.8484 256.741 80.8484 253.284C80.8484 247.048 78.876 246.289 76.4298 244.351C72.4019 241.161 66.2983 238.918 59.7533 234.365C49.1589 226.995 43.5452 212.04 38.6774 203.136C35.8223 197.913 34.9813 199.966 38.0957 196.638C38.7389 195.95 39.5217 194.563 44.1624 195.84C45.3783 196.175 49.3743 197.647 49.6939 197.578C67.515 193.731 40.9685 191.307 38.8799 190.022C34.6249 187.406 28.2661 178.634 33.7741 177.269C42.7918 175.034 44.3863 182.917 54.1125 182.917C55.0666 182.917 68.7157 182.287 77.9782 178.737C82.4595 177.019 85.8923 176.787 88.1265 176.294C93.2607 175.996 95.1445 175.166 100.39 178.15C105.068 180.811 110.298 185.356 115.107 186.187C122.392 187.446 130.664 183.5 132.126 183.686C188.398 190.843 175.206 214.856 197.033 260.545L197.03 260.545Z" fill="#316CDF"/>
<g filter="url(#filter2_f)">
<path d="M197.033 260.545C197.033 307.427 163.451 343.799 121.833 360.647C108.358 366.102 106.805 366 91.3206 366C79.0534 366 66.6481 365.305 54.2891 361.983C47.5053 360.16 60.0945 352.195 52.8957 349.404C47.4768 347.303 33.4344 350.543 27.7854 347.74C13.9163 340.856 20.047 343.651 12.0637 333.945C11.5197 333.284 10.304 331.156 10.0886 330.108C9.78167 328.614 8.78625 325.8 8.85603 323.43C8.93153 320.873 10.085 318.764 10.0842 317.403C10.0842 317.337 10.0702 317.282 10.0702 317.222C10.0647 317.101 10.0636 316.98 10.0491 316.851C10.0073 316.485 9.9547 316.093 9.93091 315.744C9.868 314.831 10.0519 314.033 10.2043 313.275C10.5784 311.414 11.3347 309.611 13.7182 308.382C15.1476 307.644 23.2609 310.797 24.32 310.402C34.1413 306.738 43.1278 299.625 56.4361 284.965C59.8242 281.233 62.171 272.742 66.6157 267.649C72.8544 260.5 80.8512 256.741 80.8512 253.285C80.8512 247.049 78.8788 246.289 76.4325 244.351C72.4049 241.161 66.3012 238.918 59.7563 234.365C49.1619 226.996 43.5481 212.041 38.6804 203.136C35.8252 197.913 34.9842 199.966 38.0986 196.638C38.7419 195.95 39.5247 194.564 44.1653 195.84C45.3812 196.175 49.3773 197.647 49.6968 197.578C67.518 193.731 40.9715 191.307 38.8828 190.023C34.6279 187.406 28.2691 178.634 33.777 177.269C42.7948 175.034 44.3892 182.917 54.1154 182.917C55.0695 182.917 68.7187 182.287 77.9812 178.737C82.4624 177.019 85.8953 176.787 88.1295 176.294C93.2637 175.996 95.1475 175.166 100.393 178.15C105.071 180.812 110.301 185.357 115.11 186.188C122.395 187.446 130.667 183.5 132.128 183.686C188.401 190.844 175.209 214.856 197.036 260.545L197.033 260.545Z" fill="url(#paint0_radial)"/>
</g>
<path d="M54.2719 48.5205L52.8047 77.7408L55.4905 98.6915L53.5695 113.284C45.7809 124.011 38.2366 135.13 36.3559 140.529C32.118 152.695 35.1213 161.739 35.1213 161.739L33.9288 173.32L22.1689 197.695L17.2912 208.724L9.45456 217.296L5.77933 226.456C5.77933 226.456 3.77199 233.363 3.11348 236.894C1.92356 243.275 0.807617 256.232 0.807617 256.232C0.807617 256.232 4.15392 269.087 8.4399 273.851C12.7926 278.69 19.0163 282.438 25.4486 283.481C29.32 284.109 33.2647 282.438 36.987 281.216C41.1753 279.841 45.3582 278.137 48.9392 275.575C53.5902 272.247 56.9258 267.398 60.8686 263.261C66.3767 257.482 76.5956 244.235 76.5956 244.235L76.5676 240.796L77.333 243.172L199.922 264.28L200.888 257.444L205.699 256.089L212.323 255.004L199.54 244.46L198.571 230.836L185.673 205.088L189.988 201.492L208.964 203.963L209.478 198.606L192.471 180.909L196.077 170.698L202.82 173.594L199.894 164.974L189.755 163.668L173.79 165.338L174.869 157.376L181.661 148.253L187.606 147.175L182.663 143.683L168.194 140.21L166.972 132.433L167.693 121.268L149.302 121.914L139.371 118.097L130.139 105.131L123.707 82.7011L111.708 68.7848L102.348 59.9482L101.579 87.3639L95.4767 86.4981L89.0647 85.9372L80.1568 86.6075L74.2966 87.4143L68.5965 72.4436L59.8549 53.8611L54.2719 48.5205Z" fill="#9D7232"/>
<path d="M177.362 229.555L178.446 225.892L182.593 230.421L186.44 237.278L190.666 242.453L192.078 243.211L194.172 241.247L194.703 239.949L195.009 238.333L195.26 228.732C195.26 228.732 196.511 227.381 197.03 228.458C197.03 228.458 198.122 229.292 198.598 229.581C199.115 229.897 200.575 231.425 200.575 231.425L202.935 238.157L204.583 241.184L206.151 241.595L207.184 238.614L207.434 229.313C207.434 229.313 208.398 226.565 208.863 227.124C210.791 229.441 212.539 229.655 213.9 230.867C214.392 231.306 215.024 235.802 215.024 235.802L215.284 235.972L216.416 243.151L217.526 247.433L219.082 248.786L221.111 246.808L223.199 243.717L223.506 239.945C223.506 239.945 223.728 238.559 224.2 238.436C224.8 238.281 225.172 239.346 225.675 239.745C226.304 240.241 227.208 240.796 227.317 241.708C227.904 246.644 226.869 243.653 227.903 258.478C227.93 258.919 228.015 259.465 228.144 260.038C228.3 260.731 228.527 261.462 228.822 262.099C229.139 262.782 229.506 263.712 230.031 263.414C230.686 263.041 232.728 259.469 233.747 256.654C234.089 255.713 234.239 254.946 234.425 254.289C234.61 253.633 234.834 252.635 235.375 251.833C235.637 251.445 235.835 250.494 236.361 249.722C236.915 248.909 237.796 248.27 238.073 247.727C238.468 246.952 240.341 247.283 240.196 249.788C239.705 258.282 240.185 263.337 239.7 272.665C239.601 274.584 240.084 278.151 239.352 279.9C238.458 282.034 236.082 284.472 235.015 284.752C234.089 285.862 231.176 287.135 231.411 288.623C231.689 290.378 235.177 292.695 235.668 294.243C236.101 295.603 237.171 296.069 237.785 297.244C238.628 298.855 239.087 300.605 239.087 300.605L239.5 305.314L238.66 307.538L234.591 304.526L230.676 303.926L226.142 304.293L223.451 304.663C223.451 304.663 222.592 308.06 222.72 309.786C222.881 311.968 224.578 315.977 224.578 315.977C224.578 315.977 226.672 322.665 227.517 326.085C228.075 328.343 229.948 331.688 229.948 331.688L229.955 336.819L227.832 340.491L224.421 343.922L222.894 345.195L220.388 345.763L218.581 348.627L214.944 352.969L210.732 357.555L195.088 358.127L191.29 358.644L185.797 358.432L181.131 357.615L176.316 355.664L165.302 350.63L153.693 342.476L150.393 323.942L158.486 302.329L171.651 284.268L179.962 276.422L190.009 270.351L189.318 269.326L180.618 269.019L169.789 269.306L162.902 264.298L158.494 258.245L156.177 249.959L155.534 242.527L156.194 238.478L157.477 235.376L158.458 233.97L159.688 235.331L161.261 237.646L164.57 242.063L168.209 245.057L171.548 246.458L174.551 247.112L177.561 246.672L178.383 243.811L177.362 229.555Z" fill="white"/>
<defs>
<filter id="filter0_f" x="70.892" y="0.507685" width="317.299" height="141.629" filterUnits="userSpaceOnUse" color-interpolation-filters="sRGB">
<feFlood flood-opacity="0" result="BackgroundImageFix"/>
<feBlend mode="normal" in="SourceGraphic" in2="BackgroundImageFix" result="shape"/>
<feGaussianBlur stdDeviation="0.595523" result="effect1_foregroundBlur"/>
</filter>
<filter id="filter1_f" x="138.9" y="89.9" width="248.118" height="265.468" filterUnits="userSpaceOnUse" color-interpolation-filters="sRGB">
<feFlood flood-opacity="0" result="BackgroundImageFix"/>
<feBlend mode="normal" in="SourceGraphic" in2="BackgroundImageFix" result="shape"/>
<feGaussianBlur stdDeviation="0.0500231" result="effect1_foregroundBlur"/>
</filter>
<filter id="filter2_f" x="8.82745" y="175.934" width="188.234" height="190.092" filterUnits="userSpaceOnUse" color-interpolation-filters="sRGB">
<feFlood flood-opacity="0" result="BackgroundImageFix"/>
<feBlend mode="normal" in="SourceGraphic" in2="BackgroundImageFix" result="shape"/>
<feGaussianBlur stdDeviation="0.0125457" result="effect1_foregroundBlur"/>
</filter>
<radialGradient id="paint0_radial" cx="0" cy="0" r="1" gradientUnits="userSpaceOnUse" gradientTransform="translate(121.105 194.845) rotate(-135.813) scale(100.736 118.041)">
<stop stop-color="#2A2A2A"/>
<stop offset="1" stop-color="#2A2A2A" stop-opacity="0"/>
</radialGradient>
</defs>
</svg>
